# xmcd CD database file
#
# Track frame offsets:
#	150
#	18750
#	35670
#	51045
#
# Disc length: 928 seconds
#
# Revision: 4
# Processed by: cddbd v1.5.1PL0 Copyright (c) Steve Scherf et al.
# Submitted via: CDex 1.51
#
DISCID=27039e04
DTITLE=米倉千尋 - 僕のスピードで
DYEAR=2005
DGENRE=Anime
TTITLE0=僕のスピードで
TTITLE1=READY GO
TTITLE2=さくらのうた
TTITLE3=僕のスピードで (instrumental)
EXTD=YEAR: 2005
EXTT0=
EXTT1=
EXTT2=
EXTT3=
PLAYORDER=
